<mxfile host="app.diagrams.net" modified="2024-03-19T15:28:12.235Z" agent="Mozilla/5.0 (Windows NT 10.0; Win64; x64; rv:123.0) Gecko/20100101 Firefox/123.0" etag="88h1tyxbujO9lo1b0TVf" version="24.0.7" type="device">
  <diagram name="Page-1" id="fRNqHuw1Qo_kFJJiih7W">
    <mxGraphModel dx="2284" dy="782" grid="1" gridSize="10" guides="1" tooltips="1" connect="1" arrows="1" fold="1" page="1" pageScale="1" pageWidth="850" pageHeight="1100" math="0" shadow="0">
      <root>
        <mxCell id="0" />
        <mxCell id="1" parent="0" />
        <mxCell id="b23LU9gi0j9Y-G3oBM54-1" value="Stop Button Controller" style="shape=umlLifeline;perimeter=lifelinePerimeter;whiteSpace=wrap;html=1;container=1;dropTarget=0;collapsible=0;recursiveResize=0;outlineConnect=0;portConstraint=eastwest;newEdgeStyle={&quot;curved&quot;:0,&quot;rounded&quot;:0};" vertex="1" parent="1">
          <mxGeometry x="330" y="20" width="100" height="760" as="geometry" />
        </mxCell>
        <mxCell id="b23LU9gi0j9Y-G3oBM54-2" value="Queue Organizer" style="shape=umlLifeline;perimeter=lifelinePerimeter;whiteSpace=wrap;html=1;container=1;dropTarget=0;collapsible=0;recursiveResize=0;outlineConnect=0;portConstraint=eastwest;newEdgeStyle={&quot;curved&quot;:0,&quot;rounded&quot;:0};" vertex="1" parent="1">
          <mxGeometry x="220" y="20" width="100" height="760" as="geometry" />
        </mxCell>
        <mxCell id="b23LU9gi0j9Y-G3oBM54-3" value="Floor Detector" style="shape=umlLifeline;perimeter=lifelinePerimeter;whiteSpace=wrap;html=1;container=1;dropTarget=0;collapsible=0;recursiveResize=0;outlineConnect=0;portConstraint=eastwest;newEdgeStyle={&quot;curved&quot;:0,&quot;rounded&quot;:0};" vertex="1" parent="1">
          <mxGeometry x="110" y="20" width="100" height="760" as="geometry" />
        </mxCell>
        <mxCell id="b23LU9gi0j9Y-G3oBM54-4" value="Motor" style="shape=umlLifeline;perimeter=lifelinePerimeter;whiteSpace=wrap;html=1;container=1;dropTarget=0;collapsible=0;recursiveResize=0;outlineConnect=0;portConstraint=eastwest;newEdgeStyle={&quot;curved&quot;:0,&quot;rounded&quot;:0};" vertex="1" parent="1">
          <mxGeometry y="20" width="100" height="760" as="geometry" />
        </mxCell>
        <mxCell id="b23LU9gi0j9Y-G3oBM54-7" value="" style="html=1;points=[[0,0,0,0,5],[0,1,0,0,-5],[1,0,0,0,5],[1,1,0,0,-5]];perimeter=orthogonalPerimeter;outlineConnect=0;targetShapes=umlLifeline;portConstraint=eastwest;newEdgeStyle={&quot;curved&quot;:0,&quot;rounded&quot;:0};" vertex="1" parent="b23LU9gi0j9Y-G3oBM54-4">
          <mxGeometry x="45" y="40" width="10" height="50" as="geometry" />
        </mxCell>
        <mxCell id="b23LU9gi0j9Y-G3oBM54-5" value="Door Opener" style="shape=umlLifeline;perimeter=lifelinePerimeter;whiteSpace=wrap;html=1;container=1;dropTarget=0;collapsible=0;recursiveResize=0;outlineConnect=0;portConstraint=eastwest;newEdgeStyle={&quot;curved&quot;:0,&quot;rounded&quot;:0};" vertex="1" parent="1">
          <mxGeometry x="550" y="20" width="100" height="760" as="geometry" />
        </mxCell>
        <mxCell id="b23LU9gi0j9Y-G3oBM54-6" value="Light Controller System" style="shape=umlLifeline;perimeter=lifelinePerimeter;whiteSpace=wrap;html=1;container=1;dropTarget=0;collapsible=0;recursiveResize=0;outlineConnect=0;portConstraint=eastwest;newEdgeStyle={&quot;curved&quot;:0,&quot;rounded&quot;:0};" vertex="1" parent="1">
          <mxGeometry x="440" y="20" width="100" height="760" as="geometry" />
        </mxCell>
        <mxCell id="b23LU9gi0j9Y-G3oBM54-8" value="floorDetected" style="html=1;verticalAlign=bottom;endArrow=block;curved=0;rounded=0;" edge="1" parent="1" source="b23LU9gi0j9Y-G3oBM54-3" target="b23LU9gi0j9Y-G3oBM54-4">
          <mxGeometry width="80" relative="1" as="geometry">
            <mxPoint x="380" y="400" as="sourcePoint" />
            <mxPoint x="460" y="400" as="targetPoint" />
            <Array as="points">
              <mxPoint x="100" y="110" />
            </Array>
          </mxGeometry>
        </mxCell>
        <mxCell id="b23LU9gi0j9Y-G3oBM54-9" value="while" style="shape=umlFrame;whiteSpace=wrap;html=1;pointerEvents=0;" vertex="1" parent="1">
          <mxGeometry x="-10" y="140" width="710" height="610" as="geometry" />
        </mxCell>
        <mxCell id="b23LU9gi0j9Y-G3oBM54-10" value="while" style="shape=umlFrame;whiteSpace=wrap;html=1;pointerEvents=0;" vertex="1" parent="1">
          <mxGeometry x="20" y="190" width="620" height="120" as="geometry" />
        </mxCell>
      </root>
    </mxGraphModel>
  </diagram>
</mxfile>
